<svg width="64" height="64" viewBox="0 0 64 64" fill="none" xmlns="http://www.w3.org/2000/svg">
  <defs>
    <linearGradient id="favicon-top-wave" x1="12" y1="38" x2="44" y2="14" gradientUnits="userSpaceOnUse">
      <stop offset="0%" stop-color="#39C8CB" />
      <stop offset="56%" stop-color="#4FC7C3" />
      <stop offset="100%" stop-color="#60B8B1" />
    </linearGradient>
    <linearGradient id="favicon-bottom-wave" x1="16" y1="46" x2="52" y2="26" gradientUnits="userSpaceOnUse">
      <stop offset="0%" stop-color="#2F989D" />
      <stop offset="58%" stop-color="#3EA7A8" />
      <stop offset="100%" stop-color="#57AFA8" />
    </linearGradient>
    <radialGradient id="favicon-sun" cx="0" cy="0" r="1" gradientUnits="userSpaceOnUse" gradientTransform="translate(45 17) rotate(90) scale(8)">
      <stop offset="0%" stop-color="#FF8560" />
      <stop offset="100%" stop-color="#FF653D" />
    </radialGradient>
    <linearGradient id="favicon-bg" x1="10" y1="8" x2="54" y2="56" gradientUnits="userSpaceOnUse">
      <stop offset="0%" stop-color="#FFF7ED" />
      <stop offset="100%" stop-color="#F2E8DA" />
    </linearGradient>
  </defs>

  <rect x="4" y="4" width="56" height="56" rx="18" fill="url(#favicon-bg)" />
  <ellipse cx="32" cy="50" rx="15" ry="2.5" fill="#CABFB3" opacity="0.22" />
  <path d="M10 39C19 42 27 34 34 25C38 20 43 16 50 15C43 16 36 20 31 24C24 30 18 38 10 39Z" fill="url(#favicon-top-wave)" />
  <path d="M16 46C24 47 31 42 37 36C41 32 47 29 54 31C48 30 42 32 37 36C30 41 24 46 16 46Z" fill="url(#favicon-bottom-wave)" />
  <circle cx="45" cy="17" r="5.5" fill="url(#favicon-sun)" />
</svg>
